HIERARCHY
ROOT hip
{
  OFFSET 0 0 0
  CHANNELS 6 Xposition Yposition Zposition Zrotation Yrotation Xrotation
  JOINT abdomen
  {
    OFFSET 0 20.6881 -0.73152
    CHANNELS 3 Zrotation Xrotation Yrotation
    JOINT chest
    {
      OFFSET 0 11.7043 -0.48768
      CHANNELS 3 Zrotation Xrotation Yrotation
      JOINT neck
      {
        OFFSET 0 22.1894 -2.19456
        CHANNELS 3 Zrotation Xrotation Yrotation
        JOINT head
        {
          OFFSET -0.24384 7.07133 1.2192
          CHANNELS 3 Zrotation Xrotation Yrotation
          JOINT leftEye
          {
            OFFSET 4.14528 8.04674 8.04672
            CHANNELS 3 Zrotation Xrotation Yrotation
            End Site
            {
              OFFSET 1 0 0
            }
          }
          JOINT rightEye
          {
            OFFSET -3.6576 8.04674 8.04672
            CHANNELS 3 Zrotation Xrotation Yrotation
            End Site
            {
              OFFSET 1 0 0
            }
          }
        }
      }
      JOINT rCollar
      {
        OFFSET -2.68224 19.2634 -4.8768
        CHANNELS 3 Zrotation Xrotation Yrotation
        JOINT rShldr
        {
          OFFSET -8.77824 -1.95073 1.46304
          CHANNELS 3 Zrotation Xrotation Yrotation
          JOINT rForeArm
          {
            OFFSET -28.1742 -1.7115 0.48768
            CHANNELS 3 Zrotation Xrotation Yrotation
            JOINT rHand
            {
              OFFSET -22.5879 0.773209 7.07136
              CHANNELS 3 Zrotation Xrotation Yrotation
              JOINT rThumb1
              {
                OFFSET -1.2192 -0.487915 3.41376
                CHANNELS 3 Zrotation Xrotation Yrotation
                JOINT rThumb2
                {
                  OFFSET -3.37035 -0.52449 3.41376
                  CHANNELS 3 Zrotation Xrotation Yrotation
                  End Site
                  {
                    OFFSET -1.78271 -1.18214 1.43049
                  }
                }
              }
              JOINT rIndex1
              {
                OFFSET -7.75947 0.938293 5.60832
                CHANNELS 3 Zrotation Xrotation Yrotation
                JOINT rIndex2
                {
                  OFFSET -2.54057 -0.884171 1.56538
                  CHANNELS 3 Zrotation Xrotation Yrotation
                  End Site
                  {
                    OFFSET -1.62519 -0.234802 1.16502
                  }
                }
              }
              JOINT rMid1
              {
                OFFSET -8.24714 1.18213 3.41376
                CHANNELS 3 Zrotation Xrotation Yrotation
                JOINT rMid2
                {
                  OFFSET -3.10165 -0.590103 1.0647
                  CHANNELS 3 Zrotation Xrotation Yrotation
                  End Site
                  {
                    OFFSET -2.48547 -0.328903 0.83742
                  }
                }
              }
              JOINT rRing1
              {
                OFFSET -8.82822 0.546677 1.51678
                CHANNELS 3 Zrotation Xrotation Yrotation
                JOINT rRing2
                {
                  OFFSET -2.60934 -0.819778 -0.0198488
                  CHANNELS 3 Zrotation Xrotation Yrotation
                  End Site
                  {
                    OFFSET -2.33842 -0.294052 0.168128
                  }
                }
              }
              JOINT rPinky1
              {
                OFFSET -8.27202 -0.0477905 -0.4584
                CHANNELS 3 Zrotation Xrotation Yrotation
                JOINT rPinky2
                {
                  OFFSET -1.82734 -0.647385 -0.700984
                  CHANNELS 3 Zrotation Xrotation Yrotation
                  End Site
                  {
                    OFFSET -1.69225 -0.51767 -0.607171
                  }
                }
              }
            }
          }
        }
      }
      JOINT lCollar
      {
        OFFSET 2.68224 19.2634 -4.8768
        CHANNELS 3 Zrotation Xrotation Yrotation
        JOINT lShldr
        {
          OFFSET 8.77824 -1.95073 1.46304
          CHANNELS 3 Zrotation Xrotation Yrotation
          JOINT lForeArm
          {
            OFFSET 28.1742 -1.7115 0.48768
            CHANNELS 3 Zrotation Xrotation Yrotation
            JOINT lHand
            {
              OFFSET 22.5879 0.773209 7.07136
              CHANNELS 3 Zrotation Xrotation Yrotation
              JOINT lThumb1
              {
                OFFSET 1.2192 -0.487915 3.41376
                CHANNELS 3 Zrotation Xrotation Yrotation
                JOINT lThumb2
                {
                  OFFSET 3.37035 -0.52449 3.41376
                  CHANNELS 3 Zrotation Xrotation Yrotation
                  End Site
                  {
                    OFFSET 1.78271 -1.18214 1.43049
                  }
                }
              }
              JOINT lIndex1
              {
                OFFSET 7.75947 0.938293 5.60832
                CHANNELS 3 Zrotation Xrotation Yrotation
                JOINT lIndex2
                {
                  OFFSET 2.54057 -0.884171 1.56538
                  CHANNELS 3 Zrotation Xrotation Yrotation
                  End Site
                  {
                    OFFSET 1.62519 -0.234802 1.16502
                  }
                }
              }
              JOINT lMid1
              {
                OFFSET 8.24714 1.18213 3.41376
                CHANNELS 3 Zrotation Xrotation Yrotation
                JOINT lMid2
                {
                  OFFSET 3.10165 -0.590103 1.0647
                  CHANNELS 3 Zrotation Xrotation Yrotation
                  End Site
                  {
                    OFFSET 2.48547 -0.328903 0.83742
                  }
                }
              }
              JOINT lRing1
              {
                OFFSET 8.82822 0.546677 1.51678
                CHANNELS 3 Zrotation Xrotation Yrotation
                JOINT lRing2
                {
                  OFFSET 2.60934 -0.819778 -0.0198488
                  CHANNELS 3 Zrotation Xrotation Yrotation
                  End Site
                  {
                    OFFSET 2.33842 -0.294052 0.168128
                  }
                }
              }
              JOINT lPinky1
              {
                OFFSET 8.27202 -0.0477905 -0.4584
                CHANNELS 3 Zrotation Xrotation Yrotation
                JOINT lPinky2
                {
                  OFFSET 1.82734 -0.647385 -0.700984
                  CHANNELS 3 Zrotation Xrotation Yrotation
                  End Site
                  {
                    OFFSET 1.69225 -0.51767 -0.607171
                  }
                }
              }
            }
          }
        }
      }
    }
  }
  JOINT rButtock
  {
    OFFSET -8.77824 4.35084 1.2192
    CHANNELS 3 Zrotation Xrotation Yrotation
    JOINT rThigh
    {
      OFFSET 0 -1.70687 -2.19456
      CHANNELS 3 Zrotation Xrotation Yrotation
      JOINT rShin
      {
        OFFSET 0 -36.8199 0.73152
        CHANNELS 3 Zrotation Xrotation Yrotation
        JOINT rFoot
        {
          OFFSET 0.73152 -45.1104 -5.12064
          CHANNELS 3 Zrotation Xrotation Yrotation
          End Site
          {
            OFFSET -1.1221 -3.69964 12.103
          }
        }
      }
    }
  }
  JOINT lButtock
  {
    OFFSET 8.77824 4.35084 1.2192
    CHANNELS 3 Zrotation Xrotation Yrotation
    JOINT lThigh
    {
      OFFSET 0 -1.70687 -2.19456
      CHANNELS 3 Zrotation Xrotation Yrotation
      JOINT lShin
      {
        OFFSET 0 -36.8199 0.73152
        CHANNELS 3 Zrotation Xrotation Yrotation
        JOINT lFoot
        {
          OFFSET -0.73152 -45.1104 -5.12064
          CHANNELS 3 Zrotation Xrotation Yrotation
          End Site
          {
            OFFSET 1.1221 -3.69964 12.103
          }
        }
      }
    }
  }
}
MOTION
Frames:	5
Frame Time:	0.00833333
6.15205 84.8033 31.7551 0.0 0.0 0.0 -0.305086 -0.00406093 -0.0087977 -0.0843762 -0.00666545 -0.0146211 -8.21047e-15 0.0 -8.38623e-17 -2.4612e-14 3.18055e-15 -2.34504e-16 -0.0 0.0 0.0 -0.0 0.0 0.0 -4.02691e-15 -1.0871e-17 9.93923e-17 -8.43277e-14 -6.33626e-16 -3.97569e-16 -1.47856e-12 4.32158e-13 3.18055e-15 -1.6929e-11 -4.98925e-13 -2.09917e-13 -3.9936e-11 -1.40464e-13 -4.23014e-13 -6.89803e-11 -2.41722e-13 -7.34708e-13 -3.99315e-11 -1.39149e-13 -4.38917e-13 7.73091 5.47488 0.417314 -3.99357e-11 -1.4074e-13 -4.19833e-13 2.90554 0.965183 0.102902 -3.99277e-11 -1.40541e-13 -4.25399e-13 10.2786 0.731801 0.0259123 -3.9942e-11 -1.38354e-13 -4.19833e-13 2.22167 -0.733487 -0.20892 -4.12353e-15 -1.0871e-17 -1.98785e-16 -8.78661e-14 -3.35449e-16 -2.18663e-15 -1.4798e-12 -4.50844e-13 6.36111e-15 -1.69281e-11 4.02638e-13 -1.94014e-13 -3.99289e-11 -1.0656e-13 -4.23014e-13 -6.89524e-11 -1.84472e-13 -7.29142e-13 -3.99343e-11 -1.06151e-13 -4.16653e-13 -7.73091 5.47488 -0.417314 -3.9929e-11 -1.06648e-13 -4.19833e-13 -2.90554 0.965183 -0.102902 -3.99371e-11 -1.06549e-13 -4.21424e-13 -10.2786 0.731801 -0.0259123 -3.99275e-11 -1.05753e-13 -4.32555e-13 -2.22167 -0.733487 0.20892 -2.03217e-16 0.0 -3.88251e-19 0.19936 -2.70344 -0.0288713 -0.00656347 -0.653367 -0.0573627 -0.429979 3.35781 0.115501 2.03217e-16 0.0 3.88251e-19 -0.667255 -3.93835 0.0583947 0.00310877 1.58344 0.024168 0.437816 2.35596 -0.0966913
4.7267 83.0471 30.1835 -4.6637 -4.114 8.968 1.2019 -3.40212 -0.00389229 -0.857875 -1.61322 -0.0879856 1.89697 0.908097 0.168974 -1.3992 6.20651 0.160233 -0.0 0.0 0.0 -0.0 0.0 0.0 2.05643e-14 -6.76747e-15 -9.21841e-14 21.4161 5.33196 -2.63066 -3.72435 -1.60443 5.9089 0.0251132 3.51653 0.49086 8.41871e-11 -6.44508e-10 -4.17348e-11 1.45226e-10 -1.11476e-09 -7.34062e-11 8.41916e-11 -6.44504e-10 -4.17502e-11 7.73091 5.47488 0.417314 8.41856e-11 -6.44506e-10 -4.17334e-11 2.90554 0.965183 0.102902 8.41903e-11 -6.44503e-10 -4.17368e-11 10.2786 0.731801 0.0259123 8.41809e-11 -6.44503e-10 -4.17308e-11 2.22167 -0.733487 -0.20892 2.05063e-14 -6.76538e-15 -9.24698e-14 -21.0824 4.28715 4.80044 4.99319 -2.44743 -7.59517 -0.040793 4.48271 -0.623059 2.70065e-10 2.30349e-10 -5.13297e-10 4.6001e-10 3.90551e-10 -8.92035e-10 2.70062e-10 2.3035e-10 -5.13292e-10 -7.73091 5.47488 -0.417314 2.70067e-10 2.3035e-10 -5.13296e-10 -2.90554 0.965183 -0.102902 2.70058e-10 2.3035e-10 -5.13298e-10 -10.2786 0.731801 -0.0259123 2.70068e-10 2.30351e-10 -5.13309e-10 -2.22167 -0.733487 0.20892 -2.03217e-16 0.0 -3.88251e-19 0.881769 -6.09355 2.84569 0.00432408 4.43836 0.0275838 -0.740353 0.583926 -4.74758 2.03217e-16 0.0 3.88251e-19 1.33218 -7.10737 -3.69285 -0.0120655 7.3587 -0.112595 1.09123 -1.75714 5.36154
4.73088 83.0467 30.1838 -4.6576 -4.0826 8.9705 2.7958 -6.99251 0.000487458 -1.68002 -3.31186 -0.165976 3.8972 1.86788 0.348141 -2.9168 12.7682 0.336468 -0.0 0.0 0.0 -0.0 0.0 0.0 4.89538e-14 -1.03435e-14 -1.95772e-13 44.5951 10.9277 -5.48813 -7.30331 -3.24335 12.1695 -0.0143449 7.23651 1.01642 2.21707e-10 -1.3485e-09 -1.13383e-10 3.82279e-10 -2.33221e-09 -1.98634e-10 2.21711e-10 -1.34849e-09 -1.13398e-10 7.73091 5.47488 0.417314 2.21703e-10 -1.34849e-09 -1.13384e-10 2.90554 0.965183 0.102902 2.21704e-10 -1.34849e-09 -1.13385e-10 10.2786 0.731801 0.0259123 2.217e-10 -1.34849e-09 -1.13378e-10 2.22167 -0.733487 -0.20892 4.89384e-14 -1.0339e-14 -1.96045e-13 -44.1548 8.71925 9.96155 9.57318 -4.89176 -15.6692 0.0233394 9.21791 -1.29426 6.02202e-10 4.84912e-10 -1.08276e-09 1.02649e-09 8.2219e-10 -1.88151e-09 6.02202e-10 4.84914e-10 -1.08275e-09 -7.73091 5.47488 -0.417314 6.02205e-10 4.84914e-10 -1.08276e-09 -2.90554 0.965183 -0.102902 6.02196e-10 4.84915e-10 -1.08276e-09 -10.2786 0.731801 -0.0259123 6.02206e-10 4.84915e-10 -1.08277e-09 -2.22167 -0.733487 0.20892 -2.03217e-16 0.0 -3.88251e-19 1.97696 -9.64182 5.93516 -0.000765349 9.82167 0.118955 -1.57805 -2.30959 -9.89455 2.03217e-16 0.0 3.88251e-19 2.98831 -10.3936 -7.72724 0.00263282 13.464 -0.26245 2.63276 -6.00565 11.1896
4.7296 83.0461 30.1808 -4.6684 -4.0733 8.9836 4.21763 -10.1982 0.00603444 -2.41725 -4.82631 -0.235445 5.67483 2.7242 0.50743 -4.30664 18.6189 0.504274 -0.0 0.0 0.0 -0.0 0.0 0.0 6.97466e-14 -2.02807e-14 -2.76751e-13 65.7612 15.8583 -8.17078 -10.1952 -4.60889 17.7791 -0.108042 10.5465 1.49507 3.32433e-10 -1.93324e-09 -1.24358e-10 5.73638e-10 -3.34379e-09 -2.18749e-10 3.32438e-10 -1.93323e-09 -1.24373e-10 7.73091 5.47488 0.417314 3.32428e-10 -1.93324e-09 -1.24361e-10 2.90554 0.965183 0.102902 3.32426e-10 -1.93323e-09 -1.2436e-10 10.2786 0.731801 0.0259123 3.32427e-10 -1.93323e-09 -1.24353e-10 2.22167 -0.733487 -0.20892 6.9766e-14 -2.02744e-14 -2.77012e-13 -65.421 12.4966 14.7172 13.0785 -6.82733 -22.9364 0.177057 13.4417 -1.91596 8.90054e-10 6.9126e-10 -1.53905e-09 1.51793e-09 1.17202e-09 -2.67465e-09 8.90056e-10 6.91263e-10 -1.53904e-09 -7.73091 5.47488 -0.417314 8.90058e-10 6.91264e-10 -1.53905e-09 -2.90554 0.965183 -0.102902 8.90049e-10 6.91264e-10 -1.53905e-09 -10.2786 0.731801 -0.0259123 8.9006e-10 6.91265e-10 -1.53906e-09 -2.22167 -0.733487 0.20892 -2.03217e-16 0.0 -3.88251e-19 3.2857 -12.7505 8.76423 -0.0202576 14.6217 0.203822 -2.76207 -4.80013 -14.5247 2.03217e-16 0.0 3.88251e-19 4.06521 -13.2319 -11.4168 0.0442945 18.9088 -0.405187 4.74141 -9.60187 16.508
4.73549 83.0452 30.1805 -4.6559 -4.0339 8.9896 5.2085 -12.4423 0.0144487 -2.9334 -5.88032 -0.282919 6.90737 3.32191 0.616536 -5.29787 22.6931 0.628464 -0.0 0.0 0.0 -0.0 0.0 0.0 7.15475e-14 -4.6121e-14 -3.01208e-13 80.8134 19.257 -10.1518 -12.0523 -5.48542 21.7113 -0.206387 12.8344 1.83486 3.76177e-10 -2.21987e-09 1.63481e-11 6.50761e-10 -3.84069e-09 2.39178e-11 3.76181e-10 -2.21986e-09 1.63353e-11 7.73091 5.47488 0.417314 3.76171e-10 -2.21987e-09 1.63449e-11 2.90554 0.965183 0.102902 3.76168e-10 -2.21986e-09 1.63473e-11 10.2786 0.731801 0.0259123 3.76171e-10 -2.21986e-09 1.63544e-11 2.22167 -0.733487 -0.20892 7.15821e-14 -4.61142e-14 -3.01457e-13 -80.6317 14.984 18.1577 15.22 -7.98217 -28.0425 0.341357 16.393 -2.36955 1.0672e-09 7.77073e-10 -1.71242e-09 1.82181e-09 1.31734e-09 -2.97694e-09 1.0672e-09 7.77076e-10 -1.71241e-09 -7.73091 5.47488 -0.417314 1.0672e-09 7.77076e-10 -1.71242e-09 -2.90554 0.965183 -0.102902 1.06719e-09 7.77077e-10 -1.71242e-09 -10.2786 0.731801 -0.0259123 1.0672e-09 7.77077e-10 -1.71243e-09 -2.22167 -0.733487 0.20892 -2.03217e-16 0.0 -3.88251e-19 4.38935 -14.8728 10.7927 -0.0426557 17.9637 0.265943 -3.8279 -6.45738 -17.7931 2.03217e-16 0.0 3.88251e-19 4.59205 -15.1414 -14.0546 0.0908369 22.7031 -0.512394 6.61531 -11.9476 20.3079
